<?xml version="1.0" encoding="utf-8"?>
<!-- Generator: Adobe Illustrator 27.5.0, SVG Export Plug-In . SVG Version: 6.00 Build 0)  -->
<svg version="1.1" id="Layer_1" xmlns="http://www.w3.org/2000/svg" xmlns:xlink="http://www.w3.org/1999/xlink" x="0px" y="0px"
	 viewBox="0 0 70 35.4" style="enable-background:new 0 0 70 35.4;" xml:space="preserve" width="50" height="25">
<style type="text/css">
	.st0{fill:#FFB94F;}
	.st1{fill:#E8E8E8;}
</style>
<path class="st0" d="M12.7,5.4l-3.5,7.7c-0.1,0.2-0.3,0.4-0.5,0.4L0.6,14c-0.5,0.1-0.8,0.7-0.4,1.1l6.5,5.9c0.1,0.1,0.2,0.4,0.2,0.6
	l-1.8,8.2c-0.1,0.5,0.4,0.9,0.9,0.6l7-4.1c0.2-0.1,0.4-0.1,0.6,0l7,4.1c0.4,0.3,1-0.1,0.9-0.6l-1.8-8.2c-0.1-0.2,0-0.4,0.2-0.6
	l6.5-5.9c0.4-0.4,0.1-1-0.4-1.1l-8.3-0.6c-0.2,0-0.4-0.1-0.5-0.4l-3.5-7.7C13.6,4.9,12.9,4.9,12.7,5.4z"/>
<path class="st1" d="M46.6,5.4L43,13.1c-0.1,0.2-0.3,0.4-0.5,0.4L34.4,14c-0.5,0.1-0.8,0.7-0.4,1.1l6.5,5.9c0.1,0.1,0.2,0.4,0.2,0.6
	L39,29.6c-0.1,0.5,0.4,0.9,0.9,0.6l7-4.1c0.2-0.1,0.4-0.1,0.6,0l7,4.1c0.4,0.3,1-0.1,0.9-0.6l-1.8-8.2c-0.1-0.2,0-0.4,0.2-0.6
	l6.5-5.9c0.4-0.4,0.1-1-0.4-1.1l-8.3-0.6c-0.2,0-0.4-0.1-0.5-0.4l-3.5-7.7C47.5,4.9,46.8,4.9,46.6,5.4z"/>
</svg>
